<svg width="48" height="21" viewBox="0 0 48 21" fill="none" xmlns="http://www.w3.org/2000/svg">
  <path d="M6.8 3.152C8.576 3.152 10.128 3.504 11.456 4.208C12.784 4.912 13.808 5.904 14.528 7.184C15.264 8.448 15.632 9.912 15.632 11.576C15.632 13.224 15.264 14.688 14.528 15.968C13.808 17.248 12.776 18.24 11.432 18.944C10.104 19.648 8.56 20 6.8 20H0.488V3.152H6.8ZM6.536 16.448C8.088 16.448 9.296 16.024 10.16 15.176C11.024 14.328 11.456 13.128 11.456 11.576C11.456 10.024 11.024 8.816 10.16 7.952C9.296 7.088 8.088 6.656 6.536 6.656H4.592V16.448H6.536ZM24.0215 20.192C22.7095 20.192 21.5255 19.912 20.4695 19.352C19.4295 18.792 18.6055 17.992 17.9975 16.952C17.4055 15.912 17.1095 14.696 17.1095 13.304C17.1095 11.928 17.4135 10.72 18.0215 9.68C18.6295 8.624 19.4615 7.816 20.5175 7.256C21.5735 6.696 22.7575 6.416 24.0695 6.416C25.3815 6.416 26.5655 6.696 27.6215 7.256C28.6775 7.816 29.5095 8.624 30.1175 9.68C30.7255 10.72 31.0295 11.928 31.0295 13.304C31.0295 14.68 30.7175 15.896 30.0935 16.952C29.4855 17.992 28.6455 18.792 27.5735 19.352C26.5175 19.912 25.3335 20.192 24.0215 20.192ZM24.0215 16.64C24.8055 16.64 25.4695 16.352 26.0135 15.776C26.5735 15.2 26.8535 14.376 26.8535 13.304C26.8535 12.232 26.5815 11.408 26.0375 10.832C25.5095 10.256 24.8535 9.968 24.0695 9.968C23.2695 9.968 22.6055 10.256 22.0775 10.832C21.5495 11.392 21.2855 12.216 21.2855 13.304C21.2855 14.376 21.5415 15.2 22.0535 15.776C22.5815 16.352 23.2375 16.64 24.0215 16.64ZM35.2708 5.216C34.5508 5.216 33.9588 5.008 33.4948 4.592C33.0468 4.16 32.8228 3.632 32.8228 3.008C32.8228 2.368 33.0468 1.84 33.4948 1.424C33.9588 0.991999 34.5508 0.775999 35.2708 0.775999C35.9748 0.775999 36.5508 0.991999 36.9988 1.424C37.4628 1.84 37.6948 2.368 37.6948 3.008C37.6948 3.632 37.4628 4.16 36.9988 4.592C36.5508 5.008 35.9748 5.216 35.2708 5.216ZM37.3108 6.608V20H33.2068V6.608H37.3108ZM47.7489 16.52V20H45.6609C44.1729 20 43.0129 19.64 42.1809 18.92C41.3489 18.184 40.9329 16.992 40.9329 15.344V10.016H39.3009V6.608H40.9329V3.344H45.0369V6.608H47.7249V10.016H45.0369V15.392C45.0369 15.792 45.1329 16.08 45.3249 16.256C45.5169 16.432 45.8369 16.52 46.2849 16.52H47.7489Z" fill="#F4F6FA"/>
</svg>
